<svg xmlns="http://www.w3.org/2000/svg" xmlns:xlink="http://www.w3.org/1999/xlink" width="1024" zoomAndPan="magnify" viewBox="0 0 768 767.999994" height="1024" preserveAspectRatio="xMidYMid meet" version="1.2"><g id="5acc4bd7bb"><rect x="0" width="768" y="0" height="767.999994" style="fill:#fefefe;fill-opacity:1;stroke:none;"/><path style=" stroke:none;fill-rule:nonzero;fill:#1f6d47;fill-opacity:1;" d="M 103.601562 332.773438 C 106.386719 333.675781 108.34375 335.589844 110.507812 337.492188 C 111.203125 338.058594 111.90625 338.621094 112.613281 339.171875 L 113.503906 339.878906 C 114.324219 340.464844 115.140625 340.910156 116.054688 341.332031 L 116.054688 342.1875 L 117.148438 342.523438 C 118.691406 343.066406 120.089844 343.738281 121.546875 344.480469 L 123.035156 345.238281 C 123.828125 345.636719 124.617188 346.042969 125.402344 346.453125 C 131.96875 349.835938 139.136719 351.46875 146.347656 352.851562 C 146.726562 352.929688 147.109375 353.007812 147.5 353.085938 C 162.226562 355.945312 177.867188 354.152344 191.988281 349.40625 C 200.539062 346.421875 208.371094 342.503906 215.246094 336.578125 C 217.574219 334.628906 219.746094 333.136719 222.71875 332.375 C 224.871094 332.019531 226.691406 332.316406 228.746094 333.011719 C 230.71875 333.871094 231.945312 335.042969 233.308594 336.683594 L 233.8125 337.492188 L 233.8125 338.773438 L 234.667969 338.773438 C 235.054688 341.886719 235.339844 344.742188 234.238281 347.734375 C 232.011719 351.859375 228.289062 354.242188 224.425781 356.691406 L 223.261719 357.453125 C 220.167969 359.460938 216.992188 361.316406 213.761719 363.09375 L 212.472656 363.808594 C 205.011719 367.742188 196.910156 370.777344 188.695312 372.675781 C 186.140625 373.304688 184.195312 374.140625 182.1875 375.871094 C 180.660156 377.4375 179.539062 378.949219 178.773438 381.011719 C 178.46875 383.003906 178.492188 384.925781 178.558594 386.933594 L 178.574219 388.472656 C 178.628906 391.746094 179 394.871094 179.625 398.078125 L 179.828125 399.175781 C 181.492188 408.113281 183.722656 416.808594 187.753906 424.988281 C 188.171875 425.835938 188.582031 426.6875 188.988281 427.539062 C 193.433594 436.699219 199.277344 444.84375 206.226562 452.269531 L 206.933594 453.121094 L 206.933594 453.972656 L 207.679688 454.292969 C 208.78125 454.90625 209.519531 455.585938 210.347656 456.535156 L 210.347656 457.386719 L 211.148438 457.707031 L 212.054688 458.238281 L 212.90625 459.945312 C 213.472656 460.238281 214.042969 460.523438 214.613281 460.800781 C 216.414062 462.464844 218.023438 464.085938 219.011719 466.347656 C 219.597656 468.71875 219.25 471.214844 218.878906 473.601562 C 218.25 475.429688 217.265625 476.808594 215.859375 478.125 C 214.183594 479.34375 212.359375 479.980469 210.347656 480.425781 C 208.058594 480.597656 206.089844 480.109375 204 479.199219 C 201.214844 477.695312 198.847656 475.472656 196.691406 473.171875 L 196.691406 472.320312 L 195.945312 471.992188 C 194.871094 471.402344 194.144531 470.734375 193.273438 469.867188 L 192.300781 468.898438 L 191.28125 467.867188 L 190.230469 466.808594 C 187.804688 464.339844 185.554688 461.851562 183.464844 459.09375 L 182.28125 457.578125 C 175.449219 448.753906 169.832031 439.0625 165.46875 428.800781 L 164.859375 427.371094 C 163.988281 425.269531 163.300781 423.386719 162.988281 421.121094 L 162.132812 421.121094 L 161.625 422.71875 C 159.363281 429.464844 156.207031 435.964844 152.601562 442.089844 C 152.042969 443.050781 151.519531 444.007812 151.039062 445.011719 L 150.1875 445.011719 L 150.027344 445.777344 C 149.597656 447.289062 148.664062 448.5 147.785156 449.785156 L 147.199219 450.652344 C 145.722656 452.820312 144.160156 454.921875 142.507812 456.960938 L 141.699219 457.988281 C 139.65625 460.589844 137.484375 463.050781 135.253906 465.492188 L 134.179688 466.699219 C 132.390625 468.710938 130.601562 470.621094 128.53125 472.339844 C 127.765625 473.007812 127.027344 473.699219 126.308594 474.417969 C 123.453125 477.226562 120.882812 479.367188 116.90625 480.425781 C 114.691406 480.734375 112.765625 480.25 110.660156 479.5625 C 109.113281 478.921875 108.257812 478.234375 107.09375 477.011719 C 105.707031 475.050781 105.011719 473.21875 104.617188 470.84375 C 104.480469 469.054688 104.726562 467.585938 105.386719 465.921875 C 106.671875 463.433594 108.28125 461.753906 110.386719 459.953125 C 115.199219 455.707031 119.894531 451.019531 123.734375 445.867188 L 124.804688 444.476562 C 135.210938 430.832031 142.589844 414.910156 144.933594 397.84375 C 145.328125 394.71875 145.621094 391.589844 145.847656 388.449219 C 145.910156 387.554688 145.984375 386.660156 146.0625 385.765625 C 146.191406 383.277344 145.890625 381.410156 144.878906 379.121094 C 143.988281 377.550781 143.132812 376.359375 141.679688 375.28125 C 139.015625 373.757812 136.046875 372.925781 133.121094 372.054688 C 125.410156 369.75 118.042969 366.878906 110.933594 363.09375 L 110.113281 362.667969 C 106.453125 360.746094 103.019531 358.574219 99.625 356.214844 L 98.558594 355.472656 C 92.988281 351.519531 92.988281 351.519531 91.375 349.128906 L 90.90625 348.082031 L 90.414062 347.023438 C 89.65625 345.074219 89.429688 343.4375 89.601562 341.332031 C 90.324219 338.9375 91.222656 336.722656 93.011719 334.933594 C 96.355469 332.390625 99.566406 331.828125 103.601562 332.773438 "/><path style=" stroke:none;fill-rule:nonzero;fill:#0b4479;fill-opacity:1;" d="M 638.71875 352 C 641.546875 351.980469 644.378906 351.964844 647.207031 351.953125 C 648.164062 351.949219 649.125 351.941406 650.082031 351.9375 C 668.945312 351.792969 668.945312 351.792969 676.171875 355.855469 C 677.515625 356.65625 678.816406 357.511719 680.105469 358.398438 L 681.386719 359.253906 L 681.386719 360.105469 C 681.644531 360.21875 681.898438 360.328125 682.164062 360.445312 C 684.136719 361.539062 685.191406 363.617188 686.339844 365.496094 C 688.964844 370.273438 689.707031 375.464844 689.675781 380.855469 C 689.523438 385.285156 688.421875 389.785156 686.285156 393.683594 C 684.359375 396.683594 682.136719 399.378906 679.253906 401.492188 L 678.25 402.238281 C 673.316406 405.628906 667.945312 406.902344 662.066406 407.394531 C 657.839844 407.65625 653.589844 407.550781 649.359375 407.519531 C 648.324219 407.515625 647.289062 407.511719 646.253906 407.507812 C 643.742188 407.5 641.230469 407.484375 638.71875 407.464844 C 638.207031 405.046875 638.234375 402.679688 638.238281 400.21875 L 638.234375 398.800781 C 638.234375 397.257812 638.234375 395.710938 638.238281 394.167969 C 638.238281 393.089844 638.234375 392.011719 638.234375 390.9375 C 638.234375 388.679688 638.234375 386.421875 638.238281 384.167969 C 638.238281 381.566406 638.238281 378.96875 638.238281 376.367188 C 638.234375 373.859375 638.234375 371.347656 638.234375 368.835938 C 638.234375 367.773438 638.234375 366.710938 638.234375 365.648438 C 638.234375 364.15625 638.234375 362.667969 638.238281 361.175781 L 638.234375 359.855469 C 638.242188 357.210938 638.40625 354.625 638.71875 352 M 515.414062 352 L 529.921875 352 C 531.835938 354.875 531.835938 354.875 532.390625 356.203125 L 532.773438 357.101562 L 533.171875 358.054688 C 534.703125 361.589844 536.441406 364.980469 538.261719 368.378906 C 539.675781 371.023438 541.003906 373.710938 542.335938 376.398438 C 542.714844 377.160156 543.097656 377.917969 543.484375 378.675781 L 544.1875 380.054688 L 544.796875 381.246094 C 545.222656 382.171875 545.503906 383.007812 545.707031 384 L 546.558594 384 L 546.859375 382.976562 C 547.566406 381.007812 548.488281 379.1875 549.429688 377.324219 L 550.03125 376.121094 C 550.667969 374.851562 551.308594 373.585938 551.945312 372.320312 L 553.207031 369.816406 C 554.023438 368.1875 554.839844 366.558594 555.660156 364.933594 C 556.375 363.515625 557.085938 362.097656 557.789062 360.675781 L 558.25 359.753906 C 558.640625 358.960938 559.035156 358.164062 559.429688 357.367188 C 560.359375 355.558594 561.359375 353.78125 562.347656 352 L 576.851562 352 L 576.851562 407.039062 C 572.59375 407.304688 568.324219 407.464844 564.054688 407.464844 L 563.625 375.039062 L 561.492188 379.308594 L 560.875 380.527344 C 559.691406 382.875 558.542969 385.238281 557.425781 387.613281 C 555.71875 391.234375 553.960938 394.8125 552.050781 398.328125 C 551.261719 399.78125 550.546875 401.222656 549.972656 402.773438 C 548.828125 402.964844 547.714844 403.097656 546.558594 403.199219 L 545.550781 403.34375 C 544.261719 403.402344 543.476562 403.304688 542.292969 402.773438 C 540.828125 400.863281 539.957031 398.710938 539.011719 396.507812 C 538.726562 395.871094 538.441406 395.238281 538.148438 394.605469 C 537.703125 393.628906 537.257812 392.648438 536.816406 391.667969 C 535.269531 388.210938 533.558594 384.839844 531.839844 381.464844 C 531.300781 380.40625 530.761719 379.34375 530.226562 378.28125 L 529.546875 376.941406 C 529.066406 375.894531 529.066406 375.894531 529.066406 375.039062 L 528.214844 375.039062 L 528.410156 376.128906 C 529.367188 382.285156 529.132812 388.644531 529.121094 394.855469 C 529.121094 396.394531 529.121094 397.933594 529.125 399.46875 C 529.125 400.445312 529.125 401.421875 529.125 402.398438 L 529.125 403.796875 L 529.121094 405.070312 L 529.121094 406.195312 L 529.066406 407.039062 L 528.640625 407.464844 L 515.414062 407.464844 Z M 515.414062 352 "/><path style=" stroke:none;fill-rule:nonzero;fill:#0b457a;fill-opacity:1;" d="M 256 352 C 257.84375 351.9375 259.6875 351.890625 261.535156 351.859375 C 262.160156 351.847656 262.789062 351.828125 263.414062 351.808594 C 264.316406 351.777344 265.222656 351.761719 266.125 351.75 L 267.769531 351.710938 C 269.226562 352 269.226562 352 269.871094 352.558594 C 270.445312 353.242188 270.445312 353.242188 271.359375 354.558594 L 272.019531 355.402344 L 272.566406 356.136719 L 273.195312 356.972656 L 273.839844 357.839844 L 274.523438 358.757812 C 276.765625 361.761719 278.96875 364.792969 281.15625 367.835938 C 283.679688 371.34375 286.226562 374.835938 288.832031 378.285156 C 289.410156 379.050781 289.988281 379.820312 290.558594 380.585938 C 290.765625 380.859375 290.96875 381.132812 291.179688 381.414062 C 291.699219 382.121094 292.199219 382.847656 292.691406 383.574219 L 292.691406 384.425781 L 293.546875 384.425781 L 293.546875 352 L 306.773438 352 L 306.773438 407.464844 L 293.546875 407.039062 C 290.667969 404.25 290.667969 404.25 290.140625 402.890625 C 289.183594 400.734375 287.800781 398.980469 286.375 397.121094 C 285.859375 396.425781 285.347656 395.734375 284.835938 395.039062 L 284.0625 393.992188 C 282.859375 392.351562 281.667969 390.695312 280.480469 389.039062 C 278.109375 385.746094 275.6875 382.492188 273.242188 379.25 C 272.183594 377.851562 271.132812 376.445312 270.078125 375.039062 C 269.714844 376.929688 269.601562 378.710938 269.605469 380.632812 L 269.605469 381.515625 C 269.605469 382.472656 269.609375 383.429688 269.613281 384.382812 L 269.613281 386.382812 C 269.617188 388.128906 269.617188 389.875 269.625 391.621094 C 269.628906 393.40625 269.628906 395.191406 269.632812 396.976562 C 269.636719 400.472656 269.644531 403.96875 269.652344 407.464844 C 267.777344 407.476562 265.902344 407.484375 264.027344 407.488281 C 263.386719 407.492188 262.75 407.496094 262.109375 407.5 C 261.195312 407.503906 260.277344 407.507812 259.363281 407.507812 L 257.6875 407.515625 L 256.425781 407.464844 L 256 407.039062 C 255.960938 406.328125 255.945312 405.613281 255.949219 404.898438 L 255.945312 403.492188 L 255.953125 401.9375 L 255.953125 400.3125 C 255.953125 398.835938 255.953125 397.359375 255.957031 395.882812 C 255.960938 394.339844 255.960938 392.800781 255.960938 391.257812 C 255.960938 388.335938 255.964844 385.417969 255.96875 382.496094 C 255.972656 379.171875 255.976562 375.847656 255.980469 372.523438 C 255.984375 365.679688 255.992188 358.839844 256 352 "/><path style=" stroke:none;fill-rule:nonzero;fill:#1f6d47;fill-opacity:1;" d="M 171.339844 290.507812 C 175.230469 292.132812 178.617188 294.59375 181.332031 297.8125 C 183.886719 301.363281 185.875 304.957031 186.453125 309.332031 C 186.839844 314.355469 186.203125 318.914062 184.117188 323.523438 C 181.980469 327.476562 179.125 330.597656 175.300781 332.964844 C 171.128906 335.394531 167.414062 336.328125 162.613281 336.398438 C 157.613281 336.371094 153.449219 335.160156 149.117188 332.636719 C 145.898438 330.546875 143.585938 328.007812 141.652344 324.691406 C 139.289062 319.847656 138.351562 315.523438 138.605469 310.171875 C 138.898438 306.242188 140.316406 302.765625 142.507812 299.519531 C 145.429688 295.839844 148.78125 292.40625 153.171875 290.558594 C 159.535156 288.542969 164.925781 288.320312 171.339844 290.507812 "/><path style=" stroke:none;fill-rule:nonzero;fill:#0a4479;fill-opacity:1;" d="M 425.8125 352 C 427.046875 351.960938 428.269531 351.945312 429.503906 351.953125 L 430.675781 351.953125 C 431.964844 351.953125 433.25 351.957031 434.535156 351.957031 L 437.203125 351.960938 C 439.546875 351.960938 441.890625 351.964844 444.238281 351.96875 C 446.628906 351.972656 449.019531 351.976562 451.410156 351.980469 C 456.105469 351.984375 460.800781 351.992188 465.492188 352 L 465.492188 363.945312 L 439.039062 363.945312 L 439.039062 373.332031 L 441.109375 373.328125 C 443.632812 373.320312 446.15625 373.3125 448.679688 373.308594 C 449.773438 373.308594 450.867188 373.304688 451.960938 373.300781 C 453.527344 373.296875 455.097656 373.292969 456.664062 373.292969 L 458.15625 373.285156 L 459.527344 373.285156 L 460.742188 373.28125 L 461.652344 373.332031 L 462.078125 373.761719 L 462.078125 384.851562 L 439.039062 385.28125 L 439.039062 395.519531 L 465.921875 395.519531 L 465.921875 407.464844 C 460.699219 407.476562 455.476562 407.484375 450.253906 407.488281 C 447.828125 407.492188 445.40625 407.492188 442.980469 407.5 C 440.644531 407.503906 438.304688 407.507812 435.96875 407.507812 C 435.074219 407.507812 434.179688 407.507812 433.285156 407.511719 C 432.039062 407.515625 430.789062 407.515625 429.542969 407.515625 L 428.410156 407.519531 C 427.546875 407.519531 426.679688 407.496094 425.8125 407.464844 L 425.386719 407.039062 C 425.347656 406.332031 425.328125 405.625 425.332031 404.917969 L 425.328125 403.527344 L 425.332031 401.984375 L 425.328125 400.371094 C 425.328125 398.910156 425.328125 397.445312 425.328125 395.984375 C 425.332031 394.453125 425.328125 392.925781 425.328125 391.398438 C 425.328125 388.832031 425.328125 386.265625 425.332031 383.699219 C 425.332031 380.726562 425.332031 377.753906 425.332031 374.78125 C 425.328125 372.234375 425.328125 369.6875 425.328125 367.140625 C 425.328125 365.621094 425.328125 364.097656 425.328125 362.574219 C 425.328125 360.875 425.328125 359.179688 425.332031 357.480469 L 425.328125 355.941406 L 425.332031 354.546875 L 425.332031 353.332031 L 425.386719 352.425781 Z M 425.8125 352 "/><path style=" stroke:none;fill-rule:nonzero;fill:#0b457a;fill-opacity:1;" d="M 589.226562 352 C 590.445312 351.957031 591.652344 351.941406 592.871094 351.945312 L 594.03125 351.941406 C 595.300781 351.941406 596.570312 351.941406 597.839844 351.941406 L 600.476562 351.941406 C 602.320312 351.941406 604.164062 351.941406 606.007812 351.945312 C 608.375 351.945312 610.742188 351.945312 613.113281 351.941406 C 614.929688 351.941406 616.742188 351.941406 618.558594 351.941406 C 619.429688 351.941406 620.304688 351.941406 621.179688 351.941406 C 622.398438 351.941406 623.617188 351.941406 624.835938 351.945312 L 625.941406 351.941406 C 626.789062 351.945312 627.632812 351.96875 628.480469 352 L 628.90625 352.425781 C 628.949219 353.0625 628.960938 353.699219 628.964844 354.339844 L 628.964844 355.523438 L 628.960938 356.773438 L 628.964844 357.996094 L 628.960938 360.28125 C 628.898438 361.511719 628.683594 362.730469 628.480469 363.945312 L 602.027344 363.945312 L 602.027344 373.332031 C 605.292969 373.3125 608.558594 373.296875 611.824219 373.285156 C 612.933594 373.28125 614.046875 373.277344 615.160156 373.269531 C 616.753906 373.257812 618.347656 373.253906 619.941406 373.25 L 621.457031 373.238281 L 622.855469 373.238281 L 624.089844 373.230469 L 625.066406 373.332031 L 625.921875 374.1875 C 626.023438 375.214844 626.023438 375.214844 626.019531 376.496094 L 626.015625 377.878906 L 626 379.332031 L 626 380.792969 C 625.984375 383.402344 625.984375 383.402344 625.921875 384.425781 L 625.492188 384.851562 C 624.773438 384.90625 624.050781 384.929688 623.332031 384.941406 L 621.933594 384.964844 L 620.410156 384.988281 L 618.863281 385.015625 C 617.226562 385.042969 615.585938 385.070312 613.945312 385.09375 L 610.621094 385.148438 C 607.898438 385.195312 605.175781 385.238281 602.453125 385.28125 L 602.027344 395.519531 L 629.332031 395.519531 L 629.332031 407.464844 C 624.109375 407.476562 618.890625 407.484375 613.667969 407.488281 C 611.242188 407.492188 608.820312 407.492188 606.394531 407.5 C 604.054688 407.503906 601.71875 407.507812 599.382812 407.507812 C 598.488281 407.507812 597.59375 407.507812 596.699219 407.511719 C 595.453125 407.515625 594.203125 407.515625 592.957031 407.515625 L 591.824219 407.519531 C 590.957031 407.519531 590.09375 407.496094 589.226562 407.464844 L 588.800781 407.039062 C 588.761719 406.332031 588.742188 405.625 588.746094 404.917969 L 588.742188 403.527344 L 588.746094 401.984375 L 588.742188 400.371094 C 588.742188 398.910156 588.742188 397.445312 588.742188 395.984375 C 588.742188 394.453125 588.742188 392.925781 588.742188 391.398438 C 588.742188 388.832031 588.742188 386.265625 588.746094 383.699219 C 588.746094 380.726562 588.746094 377.753906 588.742188 374.78125 C 588.742188 372.234375 588.742188 369.6875 588.742188 367.140625 C 588.742188 365.621094 588.742188 364.097656 588.742188 362.574219 C 588.742188 360.875 588.742188 359.179688 588.746094 357.480469 L 588.742188 355.941406 L 588.746094 354.546875 L 588.746094 353.332031 L 588.800781 352.425781 Z M 357.546875 352.851562 C 359.660156 353.828125 361.585938 354.976562 363.519531 356.265625 L 363.519531 357.121094 L 364.425781 357.386719 C 365.996094 358.136719 367.136719 359.171875 368.214844 360.535156 L 368.214844 361.386719 L 369.492188 361.8125 L 369.492188 363.09375 C 368.832031 363.613281 368.832031 363.613281 367.894531 364.160156 C 365.144531 365.886719 362.878906 368.117188 360.535156 370.347656 C 358.914062 369.597656 357.957031 368.625 356.691406 367.359375 C 354.777344 365.648438 352.828125 364.761719 350.332031 364.160156 C 346.851562 363.59375 343.167969 363.53125 339.8125 364.738281 C 337.628906 365.765625 335.789062 366.921875 334.078125 368.640625 C 332.039062 371.714844 330.480469 375.15625 330.238281 378.878906 C 330.09375 382.019531 330.71875 384.441406 332.132812 387.199219 C 332.632812 388.128906 333.140625 389.050781 333.652344 389.972656 L 334.070312 390.945312 C 334.464844 391.742188 334.464844 391.742188 335.3125 392.148438 L 336.214844 392.535156 C 336.75 392.886719 337.28125 393.242188 337.8125 393.601562 C 340.449219 395.238281 342.835938 395.574219 345.894531 395.679688 C 348.996094 395.625 351.722656 395.082031 354.558594 393.8125 C 356.484375 392.640625 357.984375 391.417969 359.28125 389.574219 L 359.679688 388.691406 C 360.855469 388.867188 361.46875 389.179688 362.445312 389.882812 L 363.601562 390.855469 L 364.839844 391.894531 C 366.550781 393.363281 368.246094 394.859375 369.921875 396.375 C 369.839844 397.09375 369.839844 397.09375 369.492188 398.078125 C 368.53125 399.136719 368.53125 399.136719 367.359375 400.214844 L 366.335938 401.15625 C 362.476562 404.449219 357.863281 407.207031 352.851562 408.320312 C 351.289062 408.558594 349.738281 408.675781 348.160156 408.746094 L 347.074219 408.816406 C 342.171875 408.984375 336.964844 408.148438 332.578125 405.921875 L 331.519531 405.332031 L 330.421875 404.746094 C 325.960938 402.234375 322.75 398.96875 320 394.667969 C 317.738281 390.796875 316.414062 386.773438 316.160156 382.292969 L 316.105469 381.425781 C 315.945312 376.074219 316.84375 370.480469 319.359375 365.722656 C 322.054688 361.273438 325.359375 357.6875 329.8125 354.988281 L 330.792969 354.390625 C 338.691406 350.023438 349.164062 349.761719 357.546875 352.851562 M 321.253906 423.039062 C 324.464844 424.195312 327.128906 426 329.445312 428.503906 C 331.433594 430.976562 332.847656 433.425781 333.476562 436.550781 C 333.707031 438.121094 333.855469 439.695312 333.972656 441.28125 L 334.046875 442.167969 C 334.15625 443.929688 333.984375 445.132812 333.226562 446.71875 C 333.054688 447.316406 332.886719 447.910156 332.71875 448.507812 C 331.835938 451.183594 330.253906 453.449219 328.332031 455.496094 C 325.839844 457.710938 322.394531 459.578125 319.148438 460.375 C 314.828125 460.988281 311.132812 460.921875 307.011719 459.492188 C 303.457031 458.042969 300.765625 455.914062 298.292969 452.988281 C 296.78125 450.933594 295.964844 448.722656 295.253906 446.292969 L 295.003906 445.472656 C 294.355469 442.238281 294.625 438.859375 295.519531 435.707031 C 296.769531 432.105469 298.765625 429.242188 301.507812 426.605469 C 307.082031 422.183594 314.488281 421.210938 321.253906 423.039062 M 372.480469 352 C 373.070312 351.960938 373.65625 351.945312 374.25 351.949219 L 375.402344 351.945312 L 376.679688 351.953125 L 378.015625 351.953125 C 379.484375 351.953125 380.949219 351.957031 382.414062 351.957031 L 385.457031 351.960938 C 388.128906 351.960938 390.800781 351.964844 393.472656 351.96875 C 396.199219 351.972656 398.925781 351.976562 401.652344 351.980469 C 407.003906 351.984375 412.355469 351.992188 417.707031 352 L 417.707031 363.945312 L 402.347656 364.375 L 401.921875 407.464844 L 388.691406 407.464844 L 388.265625 364.375 L 372.480469 363.945312 L 372.054688 363.519531 C 372.011719 362.703125 371.996094 361.882812 371.996094 361.066406 L 371.996094 359.558594 L 372 357.972656 L 371.996094 356.386719 L 371.996094 354.878906 L 372 353.488281 L 372.054688 352.425781 Z M 476.160156 352 L 488.960938 352 L 489.386719 395.519531 L 490.667969 395.09375 C 491.800781 395.050781 492.925781 395.035156 494.0625 395.035156 L 495.070312 395.035156 C 495.777344 395.035156 496.480469 395.035156 497.183594 395.039062 C 498.257812 395.039062 499.332031 395.039062 500.402344 395.035156 C 501.089844 395.035156 501.777344 395.035156 502.460938 395.035156 L 503.425781 395.035156 C 505.226562 395.042969 506.789062 395.21875 508.585938 395.519531 L 508.585938 407.464844 L 476.160156 407.464844 C 475.839844 405.867188 475.679688 404.664062 475.679688 403.070312 L 475.675781 401.714844 L 475.679688 400.242188 L 475.675781 398.679688 C 475.675781 397.269531 475.675781 395.859375 475.675781 394.449219 C 475.675781 392.972656 475.675781 391.496094 475.675781 390.019531 C 475.675781 387.542969 475.675781 385.066406 475.679688 382.59375 C 475.679688 379.726562 475.679688 376.859375 475.675781 373.992188 C 475.675781 371.535156 475.675781 369.074219 475.675781 366.613281 C 475.675781 365.144531 475.675781 363.675781 475.675781 362.203125 C 475.675781 360.570312 475.675781 358.933594 475.679688 357.296875 L 475.675781 355.8125 L 475.679688 354.472656 L 475.679688 353.300781 L 475.734375 352.425781 Z M 402.347656 422.398438 L 410.027344 422.398438 C 413.316406 429.164062 413.316406 429.164062 413.867188 432.640625 L 414.71875 432.640625 C 415.007812 433.3125 415.292969 433.988281 415.574219 434.667969 L 416.054688 435.808594 C 416.425781 436.90625 416.425781 436.90625 416.425781 438.613281 L 417.28125 438.613281 L 417.714844 439.75 L 418.292969 441.253906 L 418.863281 442.738281 C 419.199219 443.605469 419.546875 444.472656 419.910156 445.328125 C 420.265625 446.292969 420.265625 446.292969 420.265625 447.574219 L 421.121094 447.574219 C 421.40625 448.246094 421.691406 448.921875 421.972656 449.601562 L 422.453125 450.738281 C 422.828125 451.839844 422.828125 451.839844 422.828125 453.546875 L 423.679688 453.546875 C 423.96875 454.210938 424.253906 454.878906 424.535156 455.546875 L 425.011719 456.671875 C 425.386719 457.8125 425.386719 457.8125 425.386719 459.945312 L 417.28125 459.945312 L 414.292969 453.121094 L 397.652344 452.691406 L 397.226562 454.828125 C 396.964844 455.648438 396.691406 456.46875 396.398438 457.28125 L 395.960938 458.527344 L 395.519531 459.519531 C 394.519531 460.019531 393.925781 459.996094 392.808594 459.988281 L 391.710938 459.984375 L 390.558594 459.972656 L 389.398438 459.96875 C 388.453125 459.960938 387.507812 459.957031 386.558594 459.945312 C 386.859375 457.964844 387.574219 456.234375 388.347656 454.398438 L 388.753906 453.421875 C 389.535156 451.550781 390.359375 449.699219 391.226562 447.867188 C 392.8125 444.492188 394.148438 441.019531 395.519531 437.554688 C 399.722656 426.992188 399.722656 426.992188 402.347656 422.398438 "/><path style=" stroke:none;fill-rule:nonzero;fill:#fefefe;fill-opacity:1;" d="M 652.375 363.519531 C 657.578125 363.253906 663.183594 363.023438 667.992188 365.335938 C 670.277344 366.742188 672.195312 368.554688 673.707031 370.773438 C 674.808594 372.941406 675.636719 375.164062 675.839844 377.601562 L 675.921875 378.492188 C 676.085938 381.777344 675.308594 384.785156 674.132812 387.839844 C 672.941406 390.0625 671.242188 391.828125 669.160156 393.25 C 664.941406 395.625 660.84375 395.675781 656.121094 395.683594 C 653.777344 395.648438 653.777344 395.648438 652.800781 395.519531 L 651.519531 394.667969 C 651.371094 393.800781 651.371094 393.800781 651.386719 392.726562 L 651.398438 391.503906 L 651.429688 390.171875 L 651.445312 388.789062 C 651.464844 387.335938 651.492188 385.878906 651.519531 384.425781 C 651.53125 383.507812 651.546875 382.589844 651.558594 381.671875 C 651.589844 379.421875 651.632812 377.175781 651.679688 374.929688 C 651.707031 373.539062 651.734375 372.152344 651.757812 370.765625 C 651.773438 369.878906 651.792969 368.992188 651.8125 368.109375 L 651.832031 366.855469 L 651.859375 365.710938 L 651.878906 364.707031 L 651.945312 363.945312 Z M 652.375 363.519531 "/><path style=" stroke:none;fill-rule:nonzero;fill:#0b457a;fill-opacity:1;" d="M 355.414062 422.398438 C 359.078125 422.445312 362.742188 422.496094 366.40625 422.546875 C 368.109375 422.570312 369.808594 422.589844 371.507812 422.613281 C 373.148438 422.632812 374.789062 422.65625 376.429688 422.679688 C 377.058594 422.6875 377.6875 422.695312 378.3125 422.703125 C 379.1875 422.714844 380.066406 422.726562 380.941406 422.738281 C 381.4375 422.746094 381.9375 422.753906 382.453125 422.757812 L 383.574219 422.828125 L 384 423.253906 C 384.21875 425.125 384.226562 426.929688 384 428.800781 C 383.367188 430.164062 382.464844 431.125 381.441406 432.214844 C 380.882812 432.894531 380.332031 433.578125 379.785156 434.265625 L 378.917969 435.34375 C 377.683594 436.917969 376.523438 438.539062 375.363281 440.171875 C 374.730469 441.019531 374.089844 441.714844 373.332031 442.453125 C 372.890625 443 372.453125 443.550781 372.027344 444.105469 L 371.25 445.117188 L 370.347656 446.292969 L 369.21875 447.75 L 368.054688 449.253906 L 367.484375 449.988281 C 366.476562 451.28125 366.476562 451.28125 365.652344 452.691406 L 367.292969 452.6875 C 369.289062 452.679688 371.289062 452.671875 373.285156 452.667969 C 374.152344 452.667969 375.019531 452.664062 375.886719 452.660156 C 377.128906 452.65625 378.371094 452.652344 379.613281 452.652344 L 380.792969 452.644531 C 381.71875 452.644531 382.648438 452.667969 383.574219 452.695312 L 384 453.121094 C 384.042969 454.027344 384.054688 454.933594 384.054688 455.839844 L 384.058594 457.34375 C 384 458.667969 384 458.667969 383.574219 459.945312 L 354.988281 459.945312 C 354.46875 458.910156 354.472656 458.195312 354.453125 457.039062 L 354.421875 455.9375 C 354.65625 454.074219 355.6875 452.898438 356.796875 451.417969 C 357.167969 450.945312 357.542969 450.472656 357.921875 450 L 358.539062 449.214844 C 360.09375 447.257812 361.671875 445.320312 363.253906 443.386719 C 365.941406 440.097656 368.535156 436.738281 371.09375 433.347656 C 371.523438 432.78125 371.957031 432.21875 372.398438 431.660156 C 372.988281 430.890625 372.988281 430.890625 373.332031 429.652344 L 355.414062 430.078125 Z M 276.082031 422.238281 L 277.160156 422.242188 C 280.753906 422.308594 283.882812 423.054688 287.082031 424.75 L 288 425.386719 L 288 426.238281 L 289.011719 426.613281 C 290.132812 427.09375 290.132812 427.09375 290.988281 427.945312 C 290.902344 429.148438 290.433594 429.867188 289.8125 430.90625 C 288.875 432.1875 287.871094 433.257812 286.71875 434.347656 C 285.476562 433.785156 284.605469 433.160156 283.625 432.214844 C 282.527344 431.257812 281.863281 430.875 280.453125 430.347656 C 277.742188 429.847656 274.96875 429.632812 272.308594 430.4375 C 270.375 431.304688 269.03125 432.269531 267.734375 433.945312 C 266.15625 436.261719 265.519531 438.175781 265.300781 440.980469 C 265.222656 442.964844 265.246094 444.613281 266.105469 446.425781 C 267.378906 448.589844 268.78125 450.378906 270.878906 451.785156 C 273.179688 452.984375 275.441406 452.9375 277.988281 452.84375 C 279.828125 452.65625 280.882812 452.382812 282.453125 451.414062 C 284.207031 450.15625 284.207031 450.15625 285.441406 448.425781 C 286.96875 449.082031 288.011719 449.992188 289.199219 451.148438 L 290.25 452.144531 L 290.988281 453.121094 C 290.933594 454.03125 290.933594 454.03125 290.558594 454.828125 C 288.730469 457.226562 286.039062 458.371094 283.308594 459.519531 C 282.035156 459.910156 280.78125 460.171875 279.464844 460.375 L 278.132812 460.640625 C 274.515625 461.113281 271.453125 460.417969 268.097656 459.066406 C 265.609375 457.90625 263.394531 456.449219 261.546875 454.398438 L 261.546875 453.546875 L 260.265625 453.121094 C 259.613281 452.171875 259.613281 452.171875 258.960938 450.960938 L 258.304688 449.773438 C 256.597656 445.9375 256.453125 441.898438 256.851562 437.761719 C 257.21875 436.066406 257.78125 434.609375 258.558594 433.066406 L 259.109375 431.953125 C 260.589844 429.234375 262.421875 427.167969 264.960938 425.386719 C 266.484375 424.554688 268.027344 423.863281 269.652344 423.253906 L 270.832031 422.78125 C 272.605469 422.292969 274.25 422.238281 276.082031 422.238281 "/><path style=" stroke:none;fill-rule:nonzero;fill:#fefefe;fill-opacity:1;" d="M 317.011719 429.652344 C 318.980469 430.203125 320.539062 431.15625 322.238281 432.265625 C 323.859375 433.960938 324.871094 435.5 325.546875 437.761719 C 325.90625 440.847656 325.929688 443.949219 324.933594 446.933594 C 324.007812 448.890625 322.625 450.199219 320.988281 451.585938 C 319.492188 452.617188 318.296875 453.074219 316.488281 453.261719 C 313.695312 453.292969 311.359375 453.25 308.863281 451.921875 C 307.304688 450.941406 305.980469 450.070312 304.988281 448.460938 C 304.550781 447.609375 304.164062 446.746094 303.785156 445.867188 L 303.253906 444.851562 C 302.734375 443.039062 302.710938 441.335938 302.933594 439.464844 C 303.632812 437.011719 304.671875 434.578125 306.347656 432.640625 C 309.894531 430.15625 312.675781 429.265625 317.011719 429.652344 "/><path style=" stroke:none;fill-rule:nonzero;fill:#0b457a;fill-opacity:1;" d="M 345.707031 451.679688 C 347.308594 452.265625 347.308594 452.265625 348.035156 452.800781 C 348.585938 453.546875 348.585938 453.546875 348.785156 454.625 C 348.800781 455.859375 348.765625 457.019531 348.585938 458.238281 L 347.8125 459.601562 C 346.394531 460.40625 345.679688 460.539062 344.082031 460.613281 C 342.839844 460.558594 342.839844 460.558594 341.761719 460.375 C 340.625 459.5625 340.234375 459.03125 339.625 457.8125 C 339.507812 456.261719 339.515625 455.113281 340.082031 453.652344 C 340.90625 452.691406 340.90625 452.691406 342.265625 451.867188 C 343.769531 451.449219 344.265625 451.363281 345.707031 451.679688 "/><path style=" stroke:none;fill-rule:nonzero;fill:#fefefe;fill-opacity:1;" d="M 405.761719 433.066406 L 406.613281 433.066406 C 407.328125 434.816406 408.039062 436.566406 408.746094 438.320312 L 409.363281 439.828125 L 409.945312 441.273438 L 410.488281 442.609375 C 410.878906 443.734375 410.878906 443.734375 410.878906 445.011719 L 401.066406 445.011719 C 401.644531 442.699219 402.542969 440.539062 403.414062 438.320312 L 403.953125 436.9375 L 404.464844 435.621094 L 404.9375 434.414062 C 405.332031 433.492188 405.332031 433.492188 405.761719 433.066406 "/><path style=" stroke:none;fill-rule:nonzero;fill:#1c2f69;fill-opacity:1;" d="M 268.375 384 L 269.652344 384 L 269.652344 407.464844 L 268.800781 407.039062 C 268.226562 399.367188 268.332031 391.6875 268.375 384 "/><path style=" stroke:none;fill-rule:nonzero;fill:#02356c;fill-opacity:1;" d="M 528.214844 404.90625 L 529.066406 404.90625 C 529.085938 405.617188 529.082031 406.328125 529.066406 407.039062 L 528.640625 407.464844 C 527.753906 407.503906 526.871094 407.511719 525.984375 407.507812 L 524.355469 407.503906 L 522.640625 407.492188 C 522.066406 407.492188 521.492188 407.488281 520.917969 407.488281 C 519.511719 407.480469 518.101562 407.476562 516.691406 407.464844 L 516.265625 406.613281 L 528.214844 406.613281 Z M 528.214844 404.90625 "/></g></svg>